REM DIRINDEX 1\2\6,1\2\7,1\2\8,1\2\9,1\3\10,1\3\11,1\4\12,1\4\13,1\4\14,1\5\15,1\5\16,1\5\17
REM DIRNAME cjc020,folder01,folder02,folder03,folder04,folder05,folder06,folder07,folder08,folder09,folder10,folder11,folder12,folder13,folder14,folder15,folder16
TITLE ""
FILE "1900_2_sec01_0048_0063.mp3" MP3
  TRACK 01 AUDIO
    TITLE "0:"
    INDEX 01 00:00:00
  TRACK 02 AUDIO
    TITLE "13:cjc020_2180"
    INDEX 01 00:00:17
  TRACK 03 AUDIO
    TITLE "0:"
    INDEX 01 00:01:17
  TRACK 04 AUDIO
    TITLE "14:cjc020_2181"
    INDEX 01 00:01:21
  TRACK 05 AUDIO
    TITLE "0:"
    INDEX 01 00:03:35
  TRACK 06 AUDIO
    TITLE "13:cjc020_2182"
    INDEX 01 00:04:15
  TRACK 07 AUDIO
    TITLE "0:"
    INDEX 01 00:05:46
  TRACK 08 AUDIO
    TITLE "14:cjc020_2183"
    INDEX 01 00:05:50
  TRACK 09 AUDIO
    TITLE "0:"
    INDEX 01 00:07:64
  TRACK 10 AUDIO
    TITLE "13:cjc020_2184"
    INDEX 01 00:08:42
  TRACK 11 AUDIO
    TITLE "0:"
    INDEX 01 00:09:49
  TRACK 12 AUDIO
    TITLE "14:cjc020_2185"
    INDEX 01 00:09:53
  TRACK 13 AUDIO
    TITLE "0:"
    INDEX 01 00:12:71
  TRACK 14 AUDIO
    TITLE "13:cjc020_2186"
    INDEX 01 00:13:49
  TRACK 15 AUDIO
    TITLE "0:"
    INDEX 01 00:14:68
  TRACK 16 AUDIO
    TITLE "14:cjc020_2187"
    INDEX 01 00:14:70
  TRACK 17 AUDIO
    TITLE "0:"
    INDEX 01 00:17:37
  TRACK 18 AUDIO
    TITLE "13:cjc020_2188"
    INDEX 01 00:18:17
  TRACK 19 AUDIO
    TITLE "0:"
    INDEX 01 00:19:16
  TRACK 20 AUDIO
    TITLE "14:cjc020_2189"
    INDEX 01 00:19:18
  TRACK 21 AUDIO
    TITLE "0:"
    INDEX 01 00:24:00
  TRACK 22 AUDIO
    TITLE "13:cjc020_2190"
    INDEX 01 00:24:51
  TRACK 23 AUDIO
    TITLE "0:"
    INDEX 01 00:25:58
  TRACK 24 AUDIO
    TITLE "14:cjc020_2191"
    INDEX 01 00:25:62
  TRACK 25 AUDIO
    TITLE "0:"
    INDEX 01 00:27:67
  TRACK 26 AUDIO
    TITLE "13:cjc020_2192"
    INDEX 01 00:28:47
  TRACK 27 AUDIO
    TITLE "0:"
    INDEX 01 00:29:56
  TRACK 28 AUDIO
    TITLE "14:cjc020_2193"
    INDEX 01 00:29:60
  TRACK 29 AUDIO
    TITLE "0:"
    INDEX 01 00:34:10
  TRACK 30 AUDIO
    TITLE "13:cjc020_2194"
    INDEX 01 00:34:63
  TRACK 31 AUDIO
    TITLE "0:"
    INDEX 01 00:35:70
  TRACK 32 AUDIO
    TITLE "14:cjc020_2195"
    INDEX 01 00:35:74
  TRACK 33 AUDIO
    TITLE "0:"
    INDEX 01 00:42:14
  TRACK 34 AUDIO
    TITLE "13:cjc020_2196"
    INDEX 01 00:42:66
  TRACK 35 AUDIO
    TITLE "0:"
    INDEX 01 00:44:07
  TRACK 36 AUDIO
    TITLE "14:cjc020_2197"
    INDEX 01 00:44:14
  TRACK 37 AUDIO
    TITLE "0:"
    INDEX 01 00:48:24
  TRACK 38 AUDIO
    TITLE "13:cjc020_2198"
    INDEX 01 00:49:02
  TRACK 39 AUDIO
    TITLE "0:"
    INDEX 01 00:50:09
  TRACK 40 AUDIO
    TITLE "14:cjc020_2199"
    INDEX 01 00:50:13
  TRACK 41 AUDIO
    TITLE "0:"
    INDEX 01 00:53:33
  TRACK 42 AUDIO
    TITLE "13:cjc020_2200"
    INDEX 01 00:54:17
  TRACK 43 AUDIO
    TITLE "0:"
    INDEX 01 00:55:40
  TRACK 44 AUDIO
    TITLE "14:cjc020_2201"
    INDEX 01 00:55:44
  TRACK 45 AUDIO
    TITLE "0:"
    INDEX 01 00:59:10
  TRACK 46 AUDIO
    TITLE "13:cjc020_2202"
    INDEX 01 00:59:63
  TRACK 47 AUDIO
    TITLE "0:"
    INDEX 01 01:01:13
  TRACK 48 AUDIO
    TITLE "14:cjc020_2203"
    INDEX 01 01:01:17
  TRACK 49 AUDIO
    TITLE "0:"
    INDEX 01 01:02:34
  TRACK 50 AUDIO
    TITLE "13:cjc020_2204"
    INDEX 01 01:03:10
  TRACK 51 AUDIO
    TITLE "0:"
    INDEX 01 01:04:15
  TRACK 52 AUDIO
    TITLE "14:cjc020_2205"
    INDEX 01 01:04:19
  TRACK 53 AUDIO
    TITLE "0:"
    INDEX 01 01:09:36
  TRACK 54 AUDIO
    TITLE "13:cjc020_2206"
    INDEX 01 01:10:14
  TRACK 55 AUDIO
    TITLE "0:"
    INDEX 01 01:11:27
  TRACK 56 AUDIO
    TITLE "14:cjc020_2207"
    INDEX 01 01:11:29
  TRACK 57 AUDIO
    TITLE "0:"
    INDEX 01 01:12:38
  TRACK 58 AUDIO
    TITLE "13:cjc020_2208"
    INDEX 01 01:13:18
  TRACK 59 AUDIO
    TITLE "0:"
    INDEX 01 01:14:37
  TRACK 60 AUDIO
    TITLE "14:cjc020_2209"
    INDEX 01 01:14:41
  TRACK 61 AUDIO
    TITLE "0:"
    INDEX 01 01:16:67
  TRACK 62 AUDIO
    TITLE "13:cjc020_2210"
    INDEX 01 01:17:47
  TRACK 63 AUDIO
    TITLE "0:"
    INDEX 01 01:18:62
  TRACK 64 AUDIO
    TITLE "14:cjc020_2211"
    INDEX 01 01:18:68
  TRACK 65 AUDIO
    TITLE "0:"
    INDEX 01 01:21:16
